# xmcd
#
# Track frame offsets:
#	150
#	11079
#	25101
#	41918
#	55311
#	68866
#	82965
#	97971
#	108465
#	124011
#	137685
#
# Disc length: 2006 seconds
#
# Revision: 1
# Processed by: cddbd v1.5.2PL0 Copyright (c) Steve Scherf et al.
# Submitted via: EasyCDDAExtractor 12.0.4.1
#
DISCID=8e07d40b
DTITLE=Åsmund Åmli Band - Panorama
DYEAR=2008
DGENRE=Country
TTITLE0=Heilt flatt dekk
TTITLE1=Det ha' vòre greitt
TTITLE2=Èg æ fra bygdinn
TTITLE3=Kjendest som him'len for mèg
TTITLE4=Lykkehjúl å årelodd
TTITLE5=Skraslen skrott' å sjel
TTITLE6=Dr. Eng
TTITLE7=Papas grøne Variant
TTITLE8=Heim ti' dé
TTITLE9=Sò i etteti'
TTITLE10=Líke né'om Panorama
EXTD=
EXTT0=
EXTT1=
EXTT2=
EXTT3=
EXTT4=
EXTT5=
EXTT6=
EXTT7=
EXTT8=
EXTT9=
EXTT10=
PLAYORDER=
